PathFileType	4	(X/Y/Z)	 0.16m3min.trc
DataRate	CameraRate	NumFrames	NumMarkers	Units	OrigDataRate	OrigDataStartFrame	OrigNumFrames
200	200	10	35	m	200	251	1000
Frame#	Time	C7			LSH			RSH			MAN			RASI			LASI			HIPR			HIPL			RPSI			LPSI			COX			RTHI1			RTHI2			RTHI3			RTHI4			RSHA1			RSHA2			RSHA3			RSHA4			RHEEL			RMET5			RMET1			RTOE			LTHI1			LTHI2			LTHI3			LTHI4			LSHA1			LSHA2			LSHA3			LSHA4			LHEEL			LMET5			LMET1			LTOE			
		X1	Y1	Z1	X2	Y2	Z2	X3	Y3	Z3	X4	Y4	Z4	X5	Y5	Z5	X6	Y6	Z6	X7	Y7	Z7	X8	Y8	Z8	X9	Y9	Z9	X10	Y10	Z10	X11	Y11	Z11	X12	Y12	Z12	X13	Y13	Z13	X14	Y14	Z14	X15	Y15	Z15	X16	Y16	Z16	X17	Y17	Z17	X18	Y18	Z18	X19	Y19	Z19	X20	Y20	Z20	X21	Y21	Z21	X22	Y22	Z22	X23	Y23	Z23	X24	Y24	Z24	X25	Y25	Z25	X26	Y26	Z26	X27	Y27	Z27	X28	Y28	Z28	X29	Y29	Z29	X30	Y30	Z30	X31	Y31	Z31	X32	Y32	Z32	X33	Y33	Z33	X34	Y34	Z34	X35	Y35	Z35	
251	1.2550	-0.000000	0.000000	-0.000000	-0.294015	1.568478	-0.713894	-0.299535	1.560265	-0.380717	-0.236837	1.527898	-0.548138	-0.196791	1.113825	-0.426054	-0.189090	1.113341	-0.652734	-0.247110	1.166289	-0.402113	-0.241505	1.162577	-0.680060	-0.349294	1.153861	-0.485621	-0.347026	1.154906	-0.598566	-0.352603	1.156569	-0.541954	-0.316733	0.910591	-0.377611	-0.296877	0.853370	-0.372421	-0.237756	0.870304	-0.353915	-0.247873	0.930860	-0.359060	-0.334379	0.476355	-0.374195	-0.338107	0.434126	-0.383325	-0.278396	0.432979	-0.370833	-0.277606	0.473459	-0.366962	-0.357075	0.239995	-0.436862	-0.246856	0.127844	-0.365272	-0.210665	0.133295	-0.420066	-0.190814	0.115588	-0.410867	-0.284103	0.924698	-0.716211	-0.269945	0.864543	-0.715541	-0.205464	0.874219	-0.711723	-0.212219	0.933493	-0.712575	-0.334909	0.482846	-0.697012	-0.343011	0.443322	-0.693016	-0.280538	0.436591	-0.697477	-0.280843	0.480658	-0.700934	-0.375292	0.235958	-0.637827	-0.266445	0.135901	-0.705088	-0.227221	0.126824	-0.647520	-0.209919	0.112098	-0.656720	
252	1.2600	-0.000000	0.000000	-0.000000	-0.293555	1.570266	-0.714229	-0.299211	1.561809	-0.380431	-0.236473	1.529905	-0.548100	-0.197079	1.116040	-0.426009	-0.189417	1.115380	-0.652941	-0.247468	1.168315	-0.402131	-0.242027	1.164321	-0.680071	-0.349898	1.155505	-0.485655	-0.347542	1.156457	-0.598551	-0.353180	1.158190	-0.541986	-0.316609	0.912796	-0.377083	-0.296408	0.855581	-0.372024	-0.237192	0.872772	-0.353928	-0.247611	0.933279	-0.359019	-0.333987	0.478745	-0.374478	-0.337770	0.436514	-0.383587	-0.278093	0.435247	-0.371230	-0.277266	0.475730	-0.367285	-0.357042	0.241876	-0.437305	-0.245606	0.131556	-0.364814	-0.209944	0.136433	-0.419984	-0.189808	0.119037	-0.410665	-0.283571	0.926548	-0.716397	-0.268981	0.866502	-0.715555	-0.204577	0.876644	-0.711719	-0.211752	0.935876	-0.712747	-0.334237	0.485246	-0.696603	-0.342556	0.445775	-0.692588	-0.280126	0.438701	-0.697107	-0.280185	0.482765	-0.700568	-0.376358	0.238251	-0.637804	-0.267001	0.138862	-0.705103	-0.228034	0.129320	-0.647447	-0.210694	0.114502	-0.656629	
253	1.2650	-0.000000	0.000000	-0.000000	-0.293109	1.571817	-0.714534	-0.298852	1.563119	-0.380163	-0.236143	1.531650	-0.548050	-0.197401	1.118021	-0.425972	-0.189762	1.117235	-0.653125	-0.247831	1.170177	-0.402180	-0.242555	1.165919	-0.680071	-0.350535	1.156901	-0.485686	-0.348085	1.157782	-0.598512	-0.353800	1.159557	-0.542012	-0.316304	0.914714	-0.376636	-0.295863	0.857538	-0.371597	-0.236538	0.874981	-0.353941	-0.247267	0.935439	-0.358968	-0.333569	0.480845	-0.374789	-0.337384	0.438611	-0.383892	-0.277752	0.437276	-0.371599	-0.276864	0.477761	-0.367631	-0.357008	0.243668	-0.437567	-0.244519	0.134877	-0.364489	-0.209488	0.139050	-0.420101	-0.189144	0.121882	-0.410699	-0.283004	0.928222	-0.716603	-0.267962	0.868292	-0.715575	-0.203641	0.878932	-0.711706	-0.211257	0.938113	-0.712913	-0.333528	0.487425	-0.696212	-0.342078	0.448017	-0.692180	-0.279693	0.440566	-0.696720	-0.279489	0.484636	-0.700200	-0.377441	0.240393	-0.637769	-0.267657	0.141496	-0.704980	-0.228986	0.131517	-0.647193	-0.211617	0.116587	-0.656327	
254	1.2700	-0.000000	0.000000	-0.000000	-0.292667	1.573133	-0.714811	-0.298468	1.564198	-0.379919	-0.235817	1.533125	-0.547999	-0.197755	1.119764	-0.425939	-0.190124	1.118905	-0.653284	-0.248219	1.171867	-0.402249	-0.243083	1.167372	-0.680070	-0.351191	1.158068	-0.485723	-0.348639	1.158898	-0.598464	-0.354455	1.160685	-0.542034	-0.315804	0.916334	-0.376302	-0.295253	0.859234	-0.371150	-0.235811	0.876928	-0.353962	-0.246847	0.937336	-0.358907	-0.333105	0.482670	-0.375099	-0.336955	0.440415	-0.384224	-0.277373	0.439055	-0.371944	-0.276376	0.479541	-0.368011	-0.356956	0.245362	-0.437679	-0.243615	0.137769	-0.364278	-0.209240	0.141165	-0.420386	-0.188756	0.124148	-0.410933	-0.282419	0.929722	-0.716830	-0.266920	0.869910	-0.715614	-0.202690	0.881054	-0.711677	-0.210749	0.940173	-0.713053	-0.332787	0.489391	-0.695856	-0.341581	0.450047	-0.691812	-0.279243	0.442205	-0.696328	-0.278762	0.486272	-0.699834	-0.378527	0.242368	-0.637708	-0.268393	0.143803	-0.704721	-0.230042	0.133427	-0.646780	-0.212652	0.118364	-0.655840	
255	1.2750	-0.000000	0.000000	-0.000000	-0.292221	1.574206	-0.715058	-0.298065	1.565051	-0.379701	-0.235466	1.534337	-0.547947	-0.198137	1.121264	-0.425906	-0.190503	1.120377	-0.653421	-0.248640	1.173355	-0.402328	-0.243609	1.168676	-0.680075	-0.351856	1.159013	-0.485761	-0.349206	1.159809	-0.598409	-0.355136	1.161597	-0.542055	-0.315107	0.917631	-0.376094	-0.294580	0.860670	-0.370715	-0.235027	0.878600	-0.353986	-0.246367	0.938950	-0.358833	-0.332587	0.484227	-0.375422	-0.336481	0.441936	-0.384583	-0.276945	0.440577	-0.372266	-0.275777	0.481070	-0.368436	-0.356897	0.246943	-0.437690	-0.242866	0.140206	-0.364202	-0.209154	0.142815	-0.420788	-0.188586	0.125872	-0.411311	-0.281835	0.931040	-0.717067	-0.265897	0.871352	-0.715683	-0.201761	0.882986	-0.711628	-0.210251	0.942029	-0.713148	-0.332018	0.491140	-0.695547	-0.341063	0.451860	-0.691489	-0.278773	0.443623	-0.695931	-0.278011	0.487688	-0.699477	-0.379602	0.244171	-0.637610	-0.269193	0.145784	-0.704329	-0.231168	0.135066	-0.646216	-0.213767	0.119842	-0.655179	
256	1.2800	-0.000000	0.000000	-0.000000	-0.291775	1.575048	-0.715272	-0.297652	1.565678	-0.379510	-0.235082	1.535292	-0.547892	-0.198545	1.122515	-0.425873	-0.190895	1.121643	-0.653541	-0.249100	1.174626	-0.402415	-0.244128	1.169809	-0.680087	-0.352525	1.159753	-0.485799	-0.349772	1.160532	-0.598365	-0.355826	1.162301	-0.542076	-0.314249	0.918586	-0.375996	-0.293862	0.861836	-0.370293	-0.234207	0.879988	-0.354011	-0.245841	0.940284	-0.358751	-0.332018	0.485509	-0.375764	-0.335952	0.443196	-0.384912	-0.276460	0.441847	-0.372558	-0.275064	0.482346	-0.368898	-0.356801	0.248377	-0.437653	-0.242282	0.142165	-0.364251	-0.209199	0.144055	-0.421263	-0.188584	0.127115	-0.411788	-0.281271	0.932175	-0.717312	-0.264922	0.872601	-0.715778	-0.200884	0.884700	-0.711546	-0.209778	0.943673	-0.713181	-0.331226	0.492664	-0.695293	-0.340524	0.453449	-0.691214	-0.278282	0.444833	-0.695541	-0.277235	0.488883	-0.699132	-0.380651	0.245798	-0.637475	-0.270048	0.147431	-0.703809	-0.232338	0.136437	-0.645520	-0.214929	0.121038	-0.654372	
257	1.2850	-0.000000	0.000000	-0.000000	-0.291325	1.575654	-0.715458	-0.297233	1.566082	-0.379348	-0.234662	1.535987	-0.547835	-0.198975	1.123512	-0.425838	-0.191297	1.122692	-0.653645	-0.249589	1.175656	-0.402506	-0.244637	1.170749	-0.680104	-0.353182	1.160298	-0.485844	-0.350333	1.161074	-0.598335	-0.356510	1.162813	-0.542100	-0.313252	0.919215	-0.376027	-0.293113	0.862724	-0.369892	-0.233372	0.881083	-0.354033	-0.245279	0.941329	-0.358674	-0.331383	0.486550	-0.376041	-0.335371	0.444226	-0.385209	-0.275897	0.442860	-0.372838	-0.274305	0.483353	-0.369320	-0.356663	0.249651	-0.437627	-0.241872	0.143634	-0.364411	-0.209334	0.144933	-0.421772	-0.188708	0.127934	-0.412332	-0.280741	0.933121	-0.717559	-0.264021	0.873652	-0.715888	-0.200081	0.886173	-0.711428	-0.209341	0.945083	-0.713153	-0.330414	0.493968	-0.695100	-0.339963	0.454819	-0.691001	-0.277767	0.445830	-0.695156	-0.276440	0.489864	-0.698807	-0.381662	0.247231	-0.637290	-0.270941	0.148740	-0.703166	-0.233529	0.137538	-0.644702	-0.216119	0.121952	-0.653434	
258	1.2900	-0.000000	0.000000	-0.000000	-0.290868	1.576031	-0.715614	-0.296809	1.566262	-0.379216	-0.234210	1.536436	-0.547773	-0.199424	1.124251	-0.425801	-0.191705	1.123512	-0.653736	-0.250127	1.176433	-0.402588	-0.245128	1.171496	-0.680127	-0.353816	1.160650	-0.485897	-0.350878	1.161443	-0.598325	-0.357177	1.163152	-0.542127	-0.312322	0.919574	-0.375974	-0.292350	0.863330	-0.369514	-0.232541	0.881891	-0.354053	-0.244695	0.942087	-0.358578	-0.330668	0.487358	-0.376273	-0.334735	0.445042	-0.385432	-0.275259	0.443618	-0.373114	-0.273496	0.484090	-0.369696	-0.356489	0.250736	-0.437624	-0.241629	0.144619	-0.364683	-0.209535	0.145477	-0.422299	-0.188923	0.128377	-0.412901	-0.280254	0.933871	-0.717797	-0.263214	0.874506	-0.716024	-0.199371	0.887382	-0.711271	-0.208946	0.946233	-0.713069	-0.329581	0.495038	-0.694965	-0.339382	0.455956	-0.690842	-0.277229	0.446610	-0.694779	-0.275628	0.490615	-0.698497	-0.382626	0.248459	-0.637064	-0.271851	0.149706	-0.702395	-0.234714	0.138384	-0.643776	-0.217314	0.122592	-0.652377	
259	1.2950	-0.000000	0.000000	-0.000000	-0.290401	1.576173	-0.715733	-0.296385	1.566214	-0.379115	-0.233735	1.536643	-0.547706	-0.199887	1.124728	-0.425764	-0.192115	1.124091	-0.653811	-0.250683	1.176940	-0.402667	-0.245598	1.172025	-0.680154	-0.354422	1.160824	-0.485955	-0.351408	1.161642	-0.598330	-0.357829	1.163319	-0.542171	-0.311503	0.919687	-0.375814	-0.291596	0.863655	-0.369154	-0.231734	0.882398	-0.354071	-0.244109	0.942560	-0.358467	-0.329874	0.487923	-0.376469	-0.334038	0.445654	-0.385580	-0.274531	0.444127	-0.373383	-0.272640	0.484547	-0.370019	-0.356286	0.251624	-0.437679	-0.241528	0.145152	-0.365069	-0.209776	0.145717	-0.422839	-0.189201	0.128487	-0.413486	-0.279815	0.934414	-0.718014	-0.262512	0.875148	-0.716172	-0.198757	0.888306	-0.711077	-0.208591	0.947111	-0.712932	-0.328738	0.495862	-0.694887	-0.338784	0.456853	-0.690729	-0.276667	0.447150	-0.694411	-0.274805	0.491129	-0.698200	-0.383533	0.249473	-0.636804	-0.272765	0.150337	-0.701513	-0.235876	0.138976	-0.642750	-0.218501	0.122967	-0.651210	
260	1.3000	-0.000000	0.000000	-0.000000	-0.289922	1.576092	-0.715826	-0.295965	1.565941	-0.379040	-0.233247	1.536606	-0.547636	-0.200361	1.124939	-0.425727	-0.192520	1.124418	-0.653871	-0.251256	1.177179	-0.402737	-0.246038	1.172330	-0.680182	-0.354994	1.160822	-0.486018	-0.351910	1.161681	-0.598354	-0.358454	1.163321	-0.542235	-0.310819	0.919570	-0.375554	-0.290867	0.863698	-0.368811	-0.230963	0.882617	-0.354095	-0.243531	0.942746	-0.358350	-0.329010	0.488243	-0.376607	-0.333281	0.446028	-0.385651	-0.273693	0.444392	-0.373661	-0.271767	0.484751	-0.370250	-0.356051	0.252288	-0.437748	-0.241552	0.145265	-0.365551	-0.210047	0.145676	-0.423405	-0.189524	0.128305	-0.414107	-0.279421	0.934742	-0.718205	-0.261911	0.875558	-0.716320	-0.198239	0.888943	-0.710853	-0.208271	0.947712	-0.712759	-0.327884	0.496430	-0.694855	-0.338169	0.457495	-0.690660	-0.276085	0.447447	-0.694052	-0.273967	0.491402	-0.697924	-0.384376	0.250267	-0.636523	-0.273666	0.150641	-0.700534	-0.237003	0.139317	-0.641640	-0.219658	0.123094	-0.649952	
